<svg width="64" height="64" viewBox="0 0 64 64" fill="none" xmlns="http://www.w3.org/2000/svg">
<path d="M56 8H8V56H56L32 32L56 8Z" fill="black"/>
<path d="M24 8L32 0L64 32L48 48H32L40 56L32 64L0 32L16 16H32L24 8Z" fill="#DAFF00"/>
<path d="M16.2917 28.3462H18.4369L18.4369 37.5592H16.2917L16.2917 28.3462ZM17.3729 26.8279C16.9839 26.8279 16.6578 26.7072 16.3947 26.4656C16.1316 26.2126 16 25.902 16 25.534C16 25.1659 16.1316 24.8611 16.3947 24.6196C16.6578 24.3665 16.9839 24.24 17.3729 24.24C17.7619 24.24 18.0879 24.3608 18.3511 24.6023C18.6142 24.8323 18.7458 25.1256 18.7458 25.4822C18.7458 25.8618 18.6142 26.1838 18.3511 26.4484C18.0994 26.7014 17.7733 26.8279 17.3729 26.8279Z" fill="black"/>
<path d="M28.05 28.3462C29.2055 28.3462 30.2504 28.582 30.9483 29.2606C31.6462 29.9392 31.9951 30.9456 31.9951 32.2798V37.5592H29.85V32.5559C29.85 31.7507 29.6612 31.1469 29.2837 30.7443C28.9061 30.3303 28.3684 30.1232 27.6705 30.1232C26.8811 30.1232 25.6997 30.1232 25.1136 30.1232C25.1136 30.8831 25.1136 32.0038 25.1136 32.9009V37.5592H22.9684V28.3462H25.0106C26.0728 28.3462 26.7059 28.3462 28.05 28.3462Z" fill="black"/>
<path d="M36.4324 28.3462H38.5775V37.5592H36.4324V28.3462ZM37.5136 26.8279C37.1246 26.8279 36.7985 26.7072 36.5354 26.4656C36.2723 26.2126 36.1407 25.902 36.1407 25.534C36.1407 25.1659 36.2723 24.8611 36.5354 24.6196C36.7985 24.3665 37.1246 24.24 37.5136 24.24C37.9026 24.24 38.2286 24.3608 38.4917 24.6023C38.7549 24.8323 38.8864 25.1256 38.8864 25.4822C38.8864 25.8618 38.7549 26.1838 38.4917 26.4484C38.2401 26.7014 37.914 26.8279 37.5136 26.8279Z" fill="black"/>
<path d="M48 37.68C47.3658 37.68 47.0721 37.68 46.5585 37.68C45.5517 37.68 44.7737 37.4154 44.2246 36.8864C43.6754 36.3573 43.4009 35.5866 43.4009 34.5745V30.1405H41.8907V28.4152H43.4009V26.3103H45.546V28.4152L48 28.4152V30.1405L45.546 30.1405V34.5227C45.546 34.9713 45.6547 35.3163 45.872 35.5579C46.0894 35.7879 46.404 35.9029 46.8159 35.9029C47.2964 35.9029 47.4031 35.9029 48 35.9029V37.68Z" fill="black"/>
</svg>
