<svg width="36" height="43" viewBox="0 0 36 43" fill="none" xmlns="http://www.w3.org/2000/svg">
<path d="M14.152 18.5C15.352 18.5 16.324 19.4 16.302 20.5C16.302 21.6 15.354 22.5 14.152 22.5C12.972 22.5 12 21.6 12 20.5C12 19.4 12.95 18.5 14.152 18.5ZM21.848 18.5C23.05 18.5 24 19.4 24 20.5C24 21.6 23.05 22.5 21.848 22.5C20.668 22.5 19.698 21.6 19.698 20.5C19.698 19.4 20.646 18.5 21.848 18.5ZM31.782 0.5C34.108 0.5 36 2.432 36 4.826V42.5L31.578 38.51L29.088 36.158L26.454 33.658L27.546 37.544H4.218C1.892 37.544 0 35.612 0 33.218V4.826C0 2.432 1.892 0.5 4.218 0.5H31.78H31.782ZM23.842 27.926C28.388 27.78 30.138 24.734 30.138 24.734C30.138 17.972 27.174 12.49 27.174 12.49C24.214 10.224 21.394 10.286 21.394 10.286L21.106 10.622C24.604 11.714 26.228 13.29 26.228 13.29C24.3181 12.214 22.2133 11.5287 20.036 11.274C18.6549 11.118 17.2599 11.1314 15.882 11.314C15.758 11.314 15.654 11.336 15.532 11.356C14.812 11.42 13.062 11.692 10.862 12.68C10.102 13.036 9.648 13.29 9.648 13.29C9.648 13.29 11.356 11.63 15.058 10.538L14.852 10.286C14.852 10.286 12.034 10.224 9.072 12.492C9.072 12.492 6.11 17.972 6.11 24.734C6.11 24.734 7.838 27.778 12.384 27.926C12.384 27.926 13.144 26.982 13.764 26.184C11.15 25.384 10.164 23.704 10.164 23.704C10.164 23.704 10.368 23.852 10.738 24.062C10.758 24.082 10.778 24.104 10.82 24.124C10.882 24.168 10.944 24.188 11.006 24.23C11.52 24.524 12.034 24.754 12.506 24.944C13.35 25.28 14.358 25.616 15.532 25.848C17.2906 26.1927 19.0988 26.1995 20.86 25.868C21.8858 25.6849 22.8867 25.3822 23.842 24.966C24.562 24.692 25.364 24.292 26.208 23.726C26.208 23.726 25.18 25.448 22.484 26.226C23.102 27.024 23.844 27.926 23.844 27.926H23.842Z" fill="#D5D9DA"/>
</svg>
