<svg width="37" height="36" viewBox="0 0 37 36" fill="none" xmlns="http://www.w3.org/2000/svg">
    <path
        d="M25.304 36V22.068H29.97L30.668 16.652H25.304V13.196C25.304 11.628 25.74 10.558 27.988 10.558H30.856V5.714C29.4676 5.56669 28.0722 5.49525 26.676 5.5C22.542 5.5 19.712 8.024 19.712 12.66V16.652H15.036V22.068H19.712V36H2.5C1.96957 36 1.46086 35.7893 1.08579 35.4142C0.710714 35.0391 0.5 34.5304 0.5 34V2C0.5 1.46957 0.710714 0.960859 1.08579 0.585786C1.46086 0.210714 1.96957 0 2.5 0H34.5C35.0304 0 35.5391 0.210714 35.9142 0.585786C36.2893 0.960859 36.5 1.46957 36.5 2V34C36.5 34.5304 36.2893 35.0391 35.9142 35.4142C35.5391 35.7893 35.0304 36 34.5 36H25.304Z"
        fill="white" />
</svg>