<svg width="7377" height="5773" viewBox="0 0 7377 5773" fill="none" xmlns="http://www.w3.org/2000/svg">
<path d="M1780.8 259.729L418.562 3504.86L3806.09 26.2459L1780.8 259.729Z" fill="#EEEEEE"/>
<path d="M4357.93 0L430 3518L7056 2670.33L6682.9 184.276L4357.93 0Z" fill="#EEEEEE"/>
<path d="M7377 3204L410 3534.96L7377 5773V3204Z" fill="#EEEEEE"/>
<g filter="url(#filter0_f_100_322)">
<circle cx="493" cy="3447" r="243" fill="white"/>
</g>
<path d="M828 3392L834.888 3447.37L878.912 3413.09L844.63 3457.11L900 3464L844.63 3470.89L878.912 3514.91L834.888 3480.63L828 3536L821.112 3480.63L777.088 3514.91L811.37 3470.89L756 3464L811.37 3457.11L777.088 3413.09L821.112 3447.37L828 3392Z" fill="#D5D9DA"/>
<path fill-rule="evenodd" clip-rule="evenodd" d="M564.945 3333L553 3339.84L559.021 3350.16L570.972 3343.34L570.979 3357H583.021L583.028 3343.34L594.979 3350.16L601 3339.84L589.055 3333L601 3326.16L594.979 3315.84L583.028 3322.66L583.021 3309H570.979L570.972 3322.66L559.021 3315.84L553 3326.16L564.945 3333Z" fill="#D5D9DA"/>
<defs>
<filter id="filter0_f_100_322" x="0" y="2954" width="986" height="986" filterUnits="userSpaceOnUse" color-interpolation-filters="sRGB">
<feFlood flood-opacity="0" result="BackgroundImageFix"/>
<feBlend mode="normal" in="SourceGraphic" in2="BackgroundImageFix" result="shape"/>
<feGaussianBlur stdDeviation="125" result="effect1_foregroundBlur_100_322"/>
</filter>
</defs>
</svg>
