<svg width="1875" height="1241" viewBox="0 0 1875 1241" fill="none" xmlns="http://www.w3.org/2000/svg">
<path d="M709.078 55.7937L418.562 747.864L1141 6.00009L709.078 55.7937Z" fill="#EEEEEE"/>
<path d="M1272.97 6.00024L430 761L1852 579.081L1771.93 45.5479L1272.97 6.00024Z" fill="#EEEEEE"/>
<path d="M1875 717L454 784.505L1875 1241V717Z" fill="#EEEEEE"/>
<g filter="url(#filter0_f_100_322)">
<circle cx="493" cy="690" r="243" fill="white"/>
</g>
<path d="M828 635L834.888 690.37L878.912 656.088L844.63 700.112L900 707L844.63 713.888L878.912 757.912L834.888 723.63L828 779L821.112 723.63L777.088 757.912L811.37 713.888L756 707L811.37 700.112L777.088 656.088L821.112 690.37L828 635Z" fill="#D5D9DA"/>
<path fill-rule="evenodd" clip-rule="evenodd" d="M564.945 576L553 582.837L559.021 593.163L570.972 586.338L570.979 600H583.021L583.028 586.338L594.979 593.163L601 582.837L589.055 576L601 569.163L594.979 558.837L583.028 565.662L583.021 552H570.979L570.972 565.662L559.021 558.837L553 569.163L564.945 576Z" fill="#D5D9DA"/>
<defs>
<filter id="filter0_f_100_322" x="0" y="197" width="986" height="986" filterUnits="userSpaceOnUse" color-interpolation-filters="sRGB">
<feFlood flood-opacity="0" result="BackgroundImageFix"/>
<feBlend mode="normal" in="SourceGraphic" in2="BackgroundImageFix" result="shape"/>
<feGaussianBlur stdDeviation="125" result="effect1_foregroundBlur_100_322"/>
</filter>
</defs>
</svg>
