<svg width="64" height="64" viewBox="0 0 64 64" fill="none" xmlns="http://www.w3.org/2000/svg">
<path fill-rule="evenodd" clip-rule="evenodd" d="M24.0001 8.00012L32.0001 0.00012207L40.0001 8.00012H56.0001L48.0001 16.0001L64.0001 32.0001L48.0001 48.0001L56.0001 56.0001H40.0001L32.0001 64.0001L24.0001 56.0001H8.00012V40.0001L0.00012207 32.0001L8.00012 24.0001V8.00012H24.0001ZM18.4369 28.3463H16.2919V37.5594H18.4369V28.3463ZM16.3948 26.4657C16.658 26.7073 16.984 26.828 17.373 26.828C17.7734 26.828 18.0995 26.7015 18.3512 26.4485C18.6143 26.1839 18.7459 25.8618 18.7459 25.4823C18.7459 25.1258 18.6143 24.8325 18.3512 24.6024C18.0881 24.3608 17.762 24.2401 17.373 24.2401C16.984 24.2401 16.658 24.3667 16.3948 24.6197C16.1317 24.8613 16.0001 25.166 16.0001 25.5342C16.0001 25.9022 16.1317 26.2127 16.3948 26.4657ZM30.9484 29.2607C30.2506 28.5822 29.2056 28.3463 28.0501 28.3463H22.9685V37.5594H25.1137V30.1233H27.6707C28.3685 30.1233 28.9063 30.3304 29.2839 30.7445C29.6613 31.147 29.8501 31.7509 29.8501 32.556V37.5594H31.9951V32.2799C31.9951 30.9457 31.6463 29.9393 30.9484 29.2607ZM36.4325 28.3463H38.5777V37.5594H36.4325V28.3463ZM37.5137 26.828C37.1247 26.828 36.7987 26.7073 36.5356 26.4657C36.2723 26.2127 36.1407 25.9022 36.1407 25.5342C36.1407 25.166 36.2723 24.8613 36.5356 24.6197C36.7987 24.3667 37.1247 24.2401 37.5137 24.2401C37.9027 24.2401 38.2287 24.3608 38.4919 24.6024C38.755 24.8325 38.8865 25.1258 38.8865 25.4823C38.8865 25.8618 38.755 26.1839 38.4919 26.4485C38.2401 26.7015 37.9141 26.828 37.5137 26.828ZM46.5585 37.6801H48.0001V35.9031H46.8159C46.4042 35.9031 46.0895 35.788 45.8721 35.558C45.6547 35.3164 45.5461 34.9715 45.5461 34.5228V30.1406H48.0001V28.4152H45.5461V26.3105H43.401V28.4152H41.8908V30.1406H43.401V34.5745C43.401 35.5868 43.6755 36.3575 44.2247 36.8865C44.7738 37.4156 45.5518 37.6801 46.5585 37.6801Z" fill="black"/>
</svg>
