<svg width="41" height="40" viewBox="0 0 41 40" fill="none" xmlns="http://www.w3.org/2000/svg">
    <path
        d="M20.5 14C18.9087 14 17.3826 14.6321 16.2574 15.7574C15.1321 16.8826 14.5 18.4087 14.5 20C14.5 21.5913 15.1321 23.1174 16.2574 24.2426C17.3826 25.3679 18.9087 26 20.5 26C22.0913 26 23.6174 25.3679 24.7426 24.2426C25.8679 23.1174 26.5 21.5913 26.5 20C26.5 18.4087 25.8679 16.8826 24.7426 15.7574C23.6174 14.6321 22.0913 14 20.5 14ZM20.5 10C23.1522 10 25.6957 11.0536 27.5711 12.9289C29.4464 14.8043 30.5 17.3478 30.5 20C30.5 22.6522 29.4464 25.1957 27.5711 27.0711C25.6957 28.9464 23.1522 30 20.5 30C17.8478 30 15.3043 28.9464 13.4289 27.0711C11.5536 25.1957 10.5 22.6522 10.5 20C10.5 17.3478 11.5536 14.8043 13.4289 12.9289C15.3043 11.0536 17.8478 10 20.5 10ZM33.5 9.5C33.5 10.163 33.2366 10.7989 32.7678 11.2678C32.2989 11.7366 31.663 12 31 12C30.337 12 29.7011 11.7366 29.2322 11.2678C28.7634 10.7989 28.5 10.163 28.5 9.5C28.5 8.83696 28.7634 8.20107 29.2322 7.73223C29.7011 7.26339 30.337 7 31 7C31.663 7 32.2989 7.26339 32.7678 7.73223C33.2366 8.20107 33.5 8.83696 33.5 9.5ZM20.5 4C15.552 4 14.744 4.014 12.442 4.116C10.874 4.19 9.822 4.4 8.846 4.78C7.978 5.116 7.352 5.518 6.686 6.186C6.06001 6.7908 5.57871 7.52917 5.278 8.346C4.898 9.326 4.688 10.376 4.616 11.942C4.512 14.15 4.5 14.922 4.5 20C4.5 24.948 4.514 25.756 4.616 28.058C4.69 29.624 4.9 30.678 5.278 31.652C5.618 32.522 6.018 33.148 6.682 33.812C7.356 34.484 7.982 34.886 8.842 35.218C9.83 35.6 10.882 35.812 12.442 35.884C14.65 35.988 15.422 36 20.5 36C25.448 36 26.256 35.986 28.558 35.884C30.122 35.81 31.176 35.6 32.152 35.222C33.018 34.884 33.648 34.482 34.312 33.818C34.986 33.144 35.388 32.518 35.72 31.658C36.1 30.672 36.312 29.618 36.384 28.058C36.488 25.85 36.5 25.078 36.5 20C36.5 15.052 36.486 14.244 36.384 11.942C36.31 10.378 36.1 9.322 35.72 8.346C35.4186 7.53 34.9381 6.79192 34.314 6.186C33.7095 5.55969 32.971 5.07833 32.154 4.778C31.174 4.398 30.122 4.188 28.558 4.116C26.35 4.012 25.578 4 20.5 4ZM20.5 0C25.934 0 26.612 0.0199999 28.744 0.12C30.874 0.22 32.324 0.554 33.6 1.05C34.92 1.558 36.032 2.246 37.144 3.356C38.161 4.35579 38.9479 5.56518 39.45 6.9C39.944 8.174 40.28 9.626 40.38 11.756C40.474 13.888 40.5 14.566 40.5 20C40.5 25.434 40.48 26.112 40.38 28.244C40.28 30.374 39.944 31.824 39.45 33.1C38.9494 34.4356 38.1622 35.6452 37.144 36.644C36.1439 37.6606 34.9346 38.4475 33.6 38.95C32.326 39.444 30.874 39.78 28.744 39.88C26.612 39.974 25.934 40 20.5 40C15.066 40 14.388 39.98 12.256 39.88C10.126 39.78 8.676 39.444 7.4 38.95C6.06465 38.4489 4.85505 37.6619 3.856 36.644C2.83881 35.6444 2.05186 34.4349 1.55 33.1C1.054 31.826 0.72 30.374 0.62 28.244C0.526 26.112 0.5 25.434 0.5 20C0.5 14.566 0.52 13.888 0.62 11.756C0.72 9.624 1.054 8.176 1.55 6.9C2.05047 5.56436 2.83761 4.35464 3.856 3.356C4.85534 2.33846 6.06486 1.55146 7.4 1.05C8.676 0.554 10.124 0.22 12.256 0.12C14.388 0.0259999 15.066 0 20.5 0Z"
        fill="white" />
</svg>