<svg width="37" height="36" viewBox="0 0 37 36" fill="none" xmlns="http://www.w3.org/2000/svg">
<path d="M31.17 30.678H25.84V22.324C25.84 20.332 25.8 17.768 23.06 17.768C20.282 17.768 19.858 19.936 19.858 22.178V30.678H14.526V13.5H19.646V15.84H19.716C20.432 14.492 22.172 13.066 24.772 13.066C30.172 13.066 31.172 16.622 31.172 21.248V30.678H31.17ZM8.506 11.15C8.09911 11.1505 7.69612 11.0707 7.32013 10.9152C6.94413 10.7597 6.60254 10.5315 6.31491 10.2437C6.02729 9.95586 5.7993 9.61412 5.64402 9.23802C5.48874 8.86193 5.40921 8.45889 5.41 8.052C5.4104 7.43967 5.59236 6.84121 5.93288 6.33229C6.2734 5.82338 6.75719 5.42687 7.32306 5.1929C7.88893 4.95894 8.51147 4.89803 9.11196 5.01788C9.71245 5.13773 10.2639 5.43295 10.6966 5.86621C11.1293 6.29948 11.4238 6.85132 11.5429 7.45196C11.662 8.0526 11.6003 8.67507 11.3656 9.24064C11.1309 9.8062 10.7337 10.2895 10.2244 10.6293C9.71503 10.9692 9.11833 11.1504 8.506 11.15ZM11.178 30.678H5.832V13.5H11.18V30.678H11.178ZM33.84 0H3.158C1.686 0 0.5 1.16 0.5 2.594V33.406C0.5 34.84 1.688 36 3.156 36H33.832C35.3 36 36.5 34.84 36.5 33.406V2.594C36.5 1.16 35.3 0 33.832 0H33.84Z" fill="black"/>
</svg>
