<svg width="800" height="598" viewBox="0 0 800 598" fill="none" xmlns="http://www.w3.org/2000/svg">
<path d="M266.548 273.072L2.475 569.723C1.79844 566.737 0.78125 563.85 0.78125 560.58V37.4203C0.78125 33.4499 1.89062 29.8624 2.9 26.2578L266.548 273.072ZM771.855 1.3812C769.92 0.948388 768.067 0.0124512 765.933 0.0124512H34.0922C32.0656 0.0124512 30.2547 0.948388 28.2031 1.3812L400.017 349.403L771.855 1.3812ZM410.638 388.095C407.584 391.016 403.806 392.434 400.017 392.434C396.237 392.434 392.452 391.016 389.431 388.095L292.228 297.131L26.025 596.101C28.6781 596.919 31.2813 597.987 34.0922 597.987H765.933C768.886 597.987 771.455 596.919 774.125 596.101L507.941 297.131L410.638 388.095ZM533.584 273.072L797.616 569.691C798.333 566.705 799.217 563.817 799.217 560.58V37.4203C799.217 33.5156 798.248 29.8624 797.248 26.2749L533.584 273.072Z" fill="black"/>
</svg>
