<svg width="64" height="64" viewBox="0 0 64 64" fill="none" xmlns="http://www.w3.org/2000/svg">
<path d="M3.32693 33.0603C1.36746 33.4827 -0.0886586 34.4625 0.0821208 35.2535C-0.340333 33.294 0.918041 31.3614 2.87751 30.9479C4.83698 30.5254 6.2931 29.5457 6.12232 28.7546C6.54477 30.7052 5.29539 32.6378 3.32693 33.0603Z" fill="black"/>
<path d="M2.87761 33.0603C4.83708 33.4827 6.29319 34.4625 6.12242 35.2535C6.54487 33.294 5.28649 31.3614 3.32703 30.9479C1.36756 30.5254 -0.0885619 29.5457 0.0822175 28.7546C-0.340237 30.7052 0.909149 32.6378 2.87761 33.0603Z" fill="black"/>
<path d="M60.673 33.0603C62.6324 33.4827 64.0885 34.4625 63.9178 35.2535C64.3402 33.294 63.0818 31.3614 61.1224 30.9479C59.1629 30.5254 57.7068 29.5457 57.8776 28.7546C57.4551 30.7052 58.7045 32.6378 60.673 33.0603Z" fill="black"/>
<path d="M61.1224 33.0603C59.1629 33.4827 57.7068 34.4625 57.8776 35.2535C57.4551 33.294 58.7135 31.3614 60.673 30.9479C62.6324 30.5254 64.0886 29.5457 63.9178 28.7546C64.3402 30.7052 63.0909 32.6378 61.1224 33.0603Z" fill="black"/>
<path d="M9.35823 48.2332C10.7604 49.4107 11.5065 50.8219 11.0391 51.3882C12.2165 49.986 12.0368 47.9006 10.6346 46.723C9.2324 45.5455 8.48636 44.1343 8.95376 43.568C7.77628 44.9613 7.95605 47.0556 9.35823 48.2332Z" fill="black"/>
<path d="M54.6417 48.2332C53.2395 49.4107 52.4935 50.8219 52.9609 51.3882C51.7834 49.986 51.9632 47.9006 53.3653 46.723C54.7675 45.5455 55.5136 44.1343 55.0462 43.568C56.2237 44.9613 56.0439 47.0556 54.6417 48.2332Z" fill="black"/>
<path d="M14.8141 55.2884C13.2412 54.5243 11.4075 54.0929 9.66379 54.2187C11.1109 53.2389 12.4592 52.0704 13.2232 50.5063C13.349 52.2412 13.8434 53.8412 14.8141 55.2884Z" fill="black"/>
<path d="M15.5871 55.844C14.3198 57.2192 12.0457 57.1563 10.6705 55.8889C11.9378 54.5137 14.3467 54.5137 15.5871 55.844Z" fill="black"/>
<path d="M15.5871 55.8444C16.5579 54.4062 16.3242 52.4556 14.886 51.4758C13.9153 52.914 14.131 55.6916 15.5871 55.8444Z" fill="black"/>
<path d="M6.00563 44.7728C4.27087 45.3122 2.25747 44.1347 1.71817 42.3999C3.45293 41.8606 5.46633 43.0291 6.00563 44.7728Z" fill="black"/>
<path d="M6.00565 44.7725C7.56963 44.0175 8.2078 42.1479 7.46177 40.575C5.8888 41.33 4.90008 44.0894 6.00565 44.7725Z" fill="black"/>
<path d="M6.41902 36.2422C6.32015 37.5545 5.15166 38.4982 3.83936 38.3904C3.94722 37.0781 5.10672 36.1343 6.41902 36.2422Z" fill="black"/>
<path d="M3.90227 38.3632C3.79441 39.7744 2.59895 40.7631 1.18777 40.6553C1.29564 39.2351 2.49109 38.2464 3.90227 38.3632Z" fill="black"/>
<path d="M7.11117 39.3792C5.94268 39.9814 4.50454 39.523 3.90231 38.3635C5.07979 37.7613 6.50895 38.2197 7.11117 39.3792Z" fill="black"/>
<path d="M3.90232 38.3543C2.64394 39.0014 1.09794 38.5161 0.450775 37.2577C1.70915 36.6105 3.25515 37.0959 3.90232 38.3543Z" fill="black"/>
<path d="M3.20122 34.894C4.23488 35.6221 4.62139 37.1681 3.88434 38.3186C2.72483 37.5906 2.45518 36.0535 3.20122 34.894Z" fill="black"/>
<path d="M3.8753 38.3273C5.02581 39.0643 5.34939 40.5474 4.70223 41.653C4.71122 41.644 4.71122 41.653 4.70223 41.653C3.62362 41.2305 3.14724 39.4688 3.8753 38.3273Z" fill="black"/>
<path d="M4.36972 23.4152C2.53609 22.1119 2.1406 19.586 3.44392 17.7523C5.26856 19.0557 5.42136 21.7074 4.36972 23.4152Z" fill="black"/>
<path d="M4.36063 23.4146C6.59874 23.6483 8.64809 22.0574 8.88179 19.8193C6.64368 19.5856 4.59432 21.1765 4.36063 23.4146Z" fill="black"/>
<path d="M6.85044 17.5807C5.36735 15.8908 5.5651 13.338 7.25492 11.8549C8.738 13.5537 8.2706 16.1605 6.85044 17.5807Z" fill="black"/>
<path d="M6.84143 17.5717C8.96269 18.3177 11.3266 17.2391 12.0637 15.1179C9.95141 14.3808 7.58747 15.4504 6.84143 17.5717Z" fill="black"/>
<path d="M10.4817 12.6462C9.34916 10.7046 10.0323 8.23273 11.9738 7.10913C13.0973 9.05969 12.1356 11.5316 10.4817 12.6462Z" fill="black"/>
<path d="M10.4727 12.6462C12.4142 13.7787 14.94 13.1765 16.0725 11.235C14.131 10.1025 11.6053 10.7047 10.4727 12.6462Z" fill="black"/>
<path d="M1.74503 23.0106C0.648445 24.0893 0.684399 25.8061 1.70908 26.9657C2.43713 27.7837 3.28204 28.2241 3.21014 29.0511L3.38092 28.1252C3.48878 27.4421 3.65057 26.5882 2.89554 25.7971C1.8439 24.6735 1.19674 23.5499 1.74503 23.0106Z" fill="black"/>
<path d="M6.76959 24.3307C7.21002 25.679 6.51792 27.1352 5.25954 27.6475C4.45059 27.9711 3.33603 28.2048 3.21918 29.0588C3.21918 29.0588 3.21918 28.915 3.24614 28.6093C3.39894 26.9734 3.55175 26.5419 4.65732 26.1015C6.04153 25.5442 6.7606 25.2565 6.76959 24.3307Z" fill="black"/>
<path d="M14.922 8.61042C15.4164 6.48916 17.6096 5.25775 19.7308 5.75211C19.2365 7.87338 17.0343 9.10479 14.922 8.61042Z" fill="black"/>
<path d="M3.20124 28.8702C3.20124 28.8702 3.21922 28.6185 3.25518 28.4747C3.32708 28.214 3.56078 27.8005 3.61471 27.459C4.83713 19.7825 9.12459 12.9151 15.5693 8.41175L15.3086 8.04321C8.76506 12.6185 4.40569 19.5938 3.17428 27.396C3.12035 27.7376 3.01249 28.0612 3.18327 28.5646C3.22821 28.7084 3.20124 28.8702 3.20124 28.8702Z" fill="black"/>
<path d="M8.49537 52.8527C9.39388 52.8527 10.1223 52.1243 10.1223 51.2258C10.1223 50.3273 9.39388 49.5989 8.49537 49.5989C7.59686 49.5989 6.86847 50.3273 6.86847 51.2258C6.86847 52.1243 7.59686 52.8527 8.49537 52.8527Z" fill="black"/>
<path d="M3.4169 46.3451C5.28649 45.635 7.38078 46.5878 8.08187 48.4574C6.21229 49.1585 4.12698 48.2147 3.4169 46.3451Z" fill="black"/>
<path d="M49.1857 55.2884C50.7587 54.5243 52.5923 54.0929 54.3361 54.2187C52.8889 53.2389 51.5407 52.0704 50.7767 50.5063C50.6508 52.2412 50.1565 53.8412 49.1857 55.2884Z" fill="black"/>
<path d="M48.4128 55.8442C49.6801 57.2194 51.9542 57.1565 53.3294 55.8892C52.0621 54.5139 49.6532 54.5139 48.4128 55.8442Z" fill="black"/>
<path d="M48.4127 55.8446C47.442 54.4064 47.6757 52.4558 49.1138 51.4761C50.0846 52.9143 49.8688 55.6918 48.4127 55.8446Z" fill="black"/>
<path d="M57.9944 44.7728C59.7292 45.3122 61.7426 44.1347 62.2819 42.3999C60.5471 41.8606 58.5337 43.0291 57.9944 44.7728Z" fill="black"/>
<path d="M57.9944 44.7725C56.4304 44.0175 55.7923 42.1479 56.5383 40.575C58.1113 41.33 59.1 44.0894 57.9944 44.7725Z" fill="black"/>
<path d="M57.5809 36.2422C57.6797 37.5545 58.8482 38.4982 60.1605 38.3904C60.0527 37.0781 58.8932 36.1343 57.5809 36.2422Z" fill="black"/>
<path d="M60.0977 38.3632C60.2055 39.7744 61.401 40.7631 62.8122 40.6553C62.7043 39.2351 61.5088 38.2464 60.0977 38.3632Z" fill="black"/>
<path d="M56.8887 39.3792C58.0572 39.9814 59.4954 39.523 60.0976 38.3635C58.9201 37.7613 57.491 38.2197 56.8887 39.3792Z" fill="black"/>
<path d="M60.0977 38.3543C61.356 39.0014 62.902 38.5161 63.5492 37.2577C62.2908 36.6105 60.7448 37.0959 60.0977 38.3543Z" fill="black"/>
<path d="M60.7987 34.894C59.765 35.6221 59.3785 37.1681 60.1156 38.3186C61.2751 37.5906 61.5447 36.0535 60.7987 34.894Z" fill="black"/>
<path d="M60.1246 38.3273C58.974 39.0643 58.6505 40.5474 59.2976 41.653C59.2886 41.644 59.2886 41.653 59.2976 41.653C60.3762 41.2305 60.8526 39.4688 60.1246 38.3273Z" fill="black"/>
<path d="M59.6303 23.4152C61.4639 22.1119 61.8594 19.586 60.5561 17.7523C58.7314 19.0557 58.5786 21.7074 59.6303 23.4152Z" fill="black"/>
<path d="M59.6393 23.4146C57.4012 23.6483 55.3519 22.0574 55.1182 19.8193C57.3563 19.5856 59.4056 21.1765 59.6393 23.4146Z" fill="black"/>
<path d="M57.1494 17.5806C58.6325 15.8907 58.4348 13.3379 56.745 11.8547C55.2619 13.5536 55.7293 16.1604 57.1494 17.5806Z" fill="black"/>
<path d="M57.1585 17.5717C55.0372 18.3177 52.6733 17.2391 51.9362 15.1179C54.0485 14.3808 56.4124 15.4504 57.1585 17.5717Z" fill="black"/>
<path d="M53.5182 12.6463C54.6507 10.7048 53.9676 8.23285 52.0261 7.10925C50.9026 9.05982 51.8643 11.5317 53.5182 12.6463Z" fill="black"/>
<path d="M53.5272 12.6463C51.5857 13.7788 49.06 13.1766 47.9274 11.2351C49.8689 10.1026 52.3947 10.7048 53.5272 12.6463Z" fill="black"/>
<path d="M62.2549 23.0106C63.3515 24.0893 63.3156 25.8151 62.2909 26.9657C61.5628 27.7837 60.7179 28.2241 60.7898 29.0511L60.6191 28.1252C60.5112 27.4421 60.3494 26.5882 61.1044 25.7971C62.1561 24.6735 62.8032 23.5499 62.2549 23.0106Z" fill="black"/>
<path d="M57.2304 24.3307C56.79 25.679 57.4821 27.1352 58.7405 27.6475C59.5494 27.9711 60.664 28.2048 60.7808 29.0588C60.7808 29.0588 60.7808 28.915 60.7539 28.6093C60.6011 26.9734 60.4483 26.5419 59.3427 26.1015C57.9585 25.5442 57.2394 25.2565 57.2304 24.3307Z" fill="black"/>
<path d="M49.078 8.61042C48.5836 6.48916 46.3904 5.25775 44.2692 5.75211C44.7635 7.87338 46.9657 9.10479 49.078 8.61042Z" fill="black"/>
<path d="M60.7988 28.8702C60.7988 28.8702 60.7808 28.6185 60.7448 28.4747C60.6729 28.214 60.4392 27.8005 60.3853 27.459C59.1629 19.7825 54.8754 12.9151 48.4307 8.41175L48.6914 8.04321C55.2349 12.6185 59.5943 19.5938 60.8257 27.396C60.8796 27.7376 60.9875 28.0612 60.8167 28.5646C60.7718 28.7084 60.7988 28.8702 60.7988 28.8702Z" fill="black"/>
<path d="M55.5045 52.8527C56.403 52.8527 57.1314 52.1243 57.1314 51.2258C57.1314 50.3273 56.403 49.5989 55.5045 49.5989C54.606 49.5989 53.8776 50.3273 53.8776 51.2258C53.8776 52.1243 54.606 52.8527 55.5045 52.8527Z" fill="black"/>
<path d="M60.5831 46.3451C58.7135 45.635 56.6192 46.5878 55.9181 48.4574C57.7877 49.1585 59.873 48.2147 60.5831 46.3451Z" fill="black"/>
<path d="M34.0494 12.6921C33.3932 12.0359 33.3932 10.9753 34.0494 10.3191C33.1595 10.5618 32.2337 10.0314 32 9.13257C31.7573 10.0225 30.8405 10.5528 29.9507 10.3191C30.6068 10.9753 30.6068 12.0359 29.9507 12.6921C30.8405 12.4494 31.7663 12.9798 32 13.8786C32.2427 12.9798 33.1595 12.4494 34.0494 12.6921Z" fill="black"/>
<path d="M54.5429 33.1869C53.8867 32.5307 53.8867 31.47 54.5429 30.8138C53.653 31.0565 52.7272 30.5262 52.4935 29.6273C52.2508 30.5172 51.334 31.0475 50.4442 30.8138C51.1003 31.47 51.1003 32.5307 50.4442 33.1869C51.334 32.9442 52.2598 33.4745 52.4935 34.3734C52.7362 33.4745 53.653 32.9442 54.5429 33.1869Z" fill="black"/>
<path d="M13.5558 33.1869C12.8997 32.5307 12.8997 31.47 13.5558 30.8138C12.666 31.0565 11.7402 30.5262 11.5065 29.6273C11.2638 30.5172 10.347 31.0475 9.45712 30.8138C10.1133 31.47 10.1133 32.5307 9.45712 33.1869C10.347 32.9442 11.2728 33.4745 11.5065 34.3734C11.7492 33.4745 12.666 32.9442 13.5558 33.1869Z" fill="black"/>
<path d="M30.7415 42.2112C30.7415 42.2112 27.4428 41.9685 27.6765 46.6426C27.6765 46.6426 24.207 47.119 23.7306 47.6763C23.0025 48.4763 22.3464 46.9842 23.1373 46.5078C23.9553 46.0224 25.3665 45.546 25.9597 45.3482C25.3665 44.2606 24.0631 42.4449 24.8631 40.5932C25.8608 38.301 29.0427 38.9482 30.2561 40.1977L30.7415 42.2112Z" fill="black"/>
<path d="M33.2582 42.2387C33.2582 42.2387 36.557 41.9961 36.3233 46.6702C36.3233 46.6702 39.7928 47.1466 40.2692 47.7039C40.9972 48.5039 41.6534 47.0118 40.8624 46.5354C40.0445 46.05 38.6333 45.5736 38.0401 45.3758C38.6333 44.2882 39.9366 42.4725 39.1366 40.6208C38.1389 38.3286 34.957 38.9758 33.7436 40.2253L33.2582 42.2387Z" fill="black"/>
<path d="M29.2046 31.7482C28.153 29.7527 26.4182 29.1504 26.4182 29.1504C26.4182 29.1504 28.1979 27.6943 27.389 25.7527C25.7441 21.8246 20.9173 20.701 18.8769 14.8134C17.5557 16.4853 18.2478 18.2381 19.4792 20.0538C18.6702 19.4785 17.8253 19.1909 16.9355 19.3077C16.8456 20.6561 17.6905 21.2853 18.1848 22.1931C17.4118 22.0044 16.6478 21.8246 15.8658 22.6156C15.9557 23.1999 16.6119 24.3325 17.6276 24.7459C17.0343 24.7549 16.4231 24.9617 15.7849 25.7527C16.3422 26.4898 16.9534 27.0201 17.6725 27.1999C17.2141 27.4426 16.7467 27.5594 16.3332 28.4673C16.7647 29.0606 17.3399 29.3752 18.059 29.5459C17.7714 29.9235 17.3939 30.1033 17.3579 31.11C18.3826 31.7752 18.9489 31.5864 19.4432 31.5864C19.2185 32.1527 19.1466 32.8179 19.3893 33.7077C20.0544 33.7077 20.7825 33.8246 21.2589 33.492C21.0072 34.0943 21.3218 34.6246 21.4926 35.1729C22.2386 35.2089 22.8768 35.1819 23.2633 34.7774C23.1285 35.2898 23.5239 35.874 23.9104 36.4134C24.5666 36.2965 25.2947 36.2695 25.5913 35.7212C25.7081 36.2875 26.2834 36.6111 26.8407 36.9437C27.4698 36.7819 28.0541 36.4673 28.2249 35.9819C28.4406 36.4583 28.89 36.8538 29.645 37.1415C29.9596 39.0651 30.4001 41.3302 30.6338 42.6426C30.7236 45.5639 29.4383 49.5999 27.9912 50.8314C27.9912 50.8314 29.0248 52.4493 32 52.4763H32.009H32.018C34.9931 52.4403 36.0268 50.8314 36.0268 50.8314C34.5797 49.5999 33.3033 45.5549 33.3842 42.6426C33.6089 41.3302 34.0583 39.0651 34.3729 37.1415C35.128 36.8538 35.5774 36.4583 35.7931 35.9819C35.9639 36.4673 36.5481 36.7909 37.1773 36.9437C37.7346 36.6111 38.3098 36.2785 38.4267 35.7212C38.7233 36.2695 39.4514 36.3055 40.1075 36.4134C40.494 35.8651 40.8895 35.2898 40.7547 34.7774C41.1322 35.1819 41.7794 35.2179 42.5254 35.1729C42.6962 34.6246 43.0108 34.1033 42.7591 33.492C43.2355 33.8246 43.9635 33.7077 44.6287 33.7077C44.8714 32.8179 44.7995 32.1437 44.5748 31.5864C45.0691 31.5774 45.6354 31.7662 46.6601 31.11C46.6241 30.1033 46.2556 29.9235 45.959 29.5459C46.678 29.3752 47.2533 29.0606 47.6847 28.4673C47.2713 27.5594 46.8039 27.4426 46.3455 27.1999C47.0645 27.0201 47.6757 26.4898 48.233 25.7527C47.5949 24.9617 46.9926 24.7549 46.3904 24.7459C47.3971 24.3325 48.0622 23.1909 48.1521 22.6156C47.3701 21.8246 46.5971 22.0044 45.8331 22.1931C46.3185 21.2853 47.1724 20.6471 47.0825 19.3077C46.1927 19.1909 45.3478 19.4785 44.5388 20.0538C45.7702 18.2471 46.4533 16.4853 45.141 14.8134C43.1007 20.701 38.2649 21.8156 36.629 25.7527C35.8201 27.7032 37.5998 29.1504 37.5998 29.1504C37.5998 29.1504 35.856 29.7527 34.8134 31.7482C34.8134 29.8606 33.9415 27.074 33.8246 26.1212C33.7617 25.6089 33.8067 24.9886 33.8965 24.4044C34.1932 22.5437 35.5055 21.4381 35.5504 21.4021C35.5234 21.4201 35.074 21.6538 34.283 21.474C34.2022 21.4561 34.1213 21.4291 34.0404 21.3931C33.4831 21.1684 32.9078 20.674 31.8652 20.8179C31.4158 20.8808 31.0562 21.0965 30.8225 21.3931C30.8135 21.4021 30.8135 21.4021 30.8045 21.4111C30.418 21.1504 30.0136 21.0785 29.6181 21.1504C28.9619 21.2673 28.6383 21.7617 28.6383 22.2111C28.6383 22.274 28.6383 22.274 28.6383 22.274C29.6091 22.1841 30.2383 22.3909 30.6877 22.9302C30.1664 22.7414 29.5911 22.6336 28.7462 22.8223C28.0631 22.9752 27.3979 22.6336 27.3979 22.6336C27.3979 22.6336 27.6227 23.4605 28.6383 23.4066C29.8158 23.3527 30.4091 23.6403 30.7416 23.9999C30.0675 23.8471 29.3394 23.7302 29.0518 24.2695C29.7349 24.2965 30.9843 25.1145 30.8495 26.0943C30.7057 27.074 29.2046 30.0853 29.2046 31.7482Z" fill="black"/>
<path d="M20.3331 47.0472C19.3354 47.4966 19.1466 48.1438 19.4702 48.8449C19.7668 47.955 20.6387 47.6584 21.2229 47.6045C20.2252 48.2157 20.2252 48.9437 20.5668 49.519C21.5645 47.946 23.6318 47.6045 24.279 48.4224L24.27 48.4314C24.4408 48.1078 24.4677 47.7663 24.3419 47.4696C23.8835 46.445 22.0858 46.2562 20.3331 47.0472Z" fill="black"/>
<path d="M43.6669 47.0472C44.6646 47.4966 44.8534 48.1438 44.5298 48.8449C44.2332 47.955 43.3613 47.6584 42.777 47.6045C43.7748 48.2157 43.7748 48.9437 43.4332 49.519C42.4355 47.946 40.3682 47.6045 39.721 48.4224L39.73 48.4314C39.5592 48.1078 39.5322 47.7663 39.6581 47.4696C40.1165 46.445 41.9142 46.2562 43.6669 47.0472Z" fill="black"/>
<path fill-rule="evenodd" clip-rule="evenodd" d="M33.5999 19.6864C33.8876 19.3808 34.5437 19.1022 34.7774 19.0392C35.3617 18.8864 36.0358 19.0752 36.1706 19.6505C36.2964 20.2257 35.838 20.7291 35.2178 20.8279C34.6516 20.9178 34.0314 20.5223 33.4112 20.3246C32.782 20.1268 32.0539 20.0999 31.6405 19.7044C31.191 19.2729 31.1012 18.5898 31.5326 18.1943C31.964 17.7988 32.6292 18.0325 33.0157 18.4909C33.1685 18.6617 33.537 19.2729 33.5999 19.6864Z" fill="black"/>
<path d="M33.9056 20.2082L33.0517 19.9386L34.0674 17.1702L34.6606 17.3589L33.9056 20.2082Z" fill="black"/>
<path d="M34.319 15.9834L35.128 16.2441L34.6606 17.3586L34.0673 17.1699L34.319 15.9834Z" fill="black"/>
<path d="M33.1954 17.2328L33.4111 16.5497L34.4448 16.9901L34.3009 17.4665L33.1954 17.2328Z" fill="black"/>
<path d="M35.5504 17.2233L35.3346 17.9064L34.301 17.466L34.4448 16.9896L35.5504 17.2233Z" fill="black"/>
<path d="M49.1858 38.1124C49.788 40.9619 47.9724 43.7574 45.1231 44.3596C44.5208 41.5102 46.3455 38.7147 49.1858 38.1124Z" fill="black"/>
<path d="M47.7566 45.3749C48.961 44.7637 49.8329 43.7659 50.3003 42.6064C49.0869 42.3008 47.7656 42.4086 46.5611 43.0199C46.0218 43.2985 45.5455 43.6491 45.141 44.0626C45.3567 43.5322 45.4825 42.948 45.5185 42.3457C45.5904 40.9974 45.15 39.748 44.377 38.7682C43.5051 39.6671 42.9478 40.8716 42.8849 42.2109C42.813 43.5592 43.2534 44.8086 44.0174 45.7884C45.2309 46.094 46.5522 45.9862 47.7566 45.3749Z" fill="black"/>
<path d="M19.8835 45.7506C18.5262 44.1687 16.1533 43.9889 14.5714 45.3372C15.9286 46.9191 18.3015 47.1079 19.8835 45.7506Z" fill="black"/>
<path d="M19.8836 45.7513C19.1555 43.8007 20.1352 41.6344 22.0857 40.8973C22.8138 42.8479 21.834 45.0232 19.8836 45.7513Z" fill="black"/>
<path d="M13.6996 42.0579C16.0006 42.723 18.1398 43.9994 19.8836 45.7522C19.1735 43.3882 19.0746 40.8983 19.5869 38.5522C17.987 40.2511 15.9556 41.4646 13.6996 42.0579Z" fill="black"/>
<path d="M17.178 41.2393C17.978 40.7539 18.2206 39.7113 17.7353 38.9113C17.2499 38.1113 16.2072 37.8687 15.4073 38.354C14.6073 38.8394 14.3646 39.8821 14.85 40.682C15.3354 41.482 16.378 41.7337 17.178 41.2393Z" fill="black"/>
<path d="M39.3974 6.51686C39.9007 6.51686 40.2603 5.47416 40.2603 4.8809C40.2603 4.53933 40.1344 4.26967 39.8828 4.26967C39.3794 4.26967 39.0379 5.30337 39.0379 5.9236C39.0379 6.30113 39.1727 6.51686 39.3974 6.51686ZM39.8468 7.2809C38.6873 7.2809 37.4379 6.53484 37.4379 4.95281C37.4379 3.21798 39.0109 1.42023 41.1322 1.42023C41.5007 1.42023 41.986 1.47416 42.4804 1.6L42.3006 2.24719C42.0939 2.21124 41.8962 2.18427 41.7074 2.18427C40.6468 2.18427 39.721 2.76854 39.2536 4.04495L39.2805 4.06292C39.5861 3.76629 39.9277 3.65843 40.2693 3.65843C41.1322 3.65843 41.9321 4.35955 41.9321 5.40225C41.9231 6.34607 41.0872 7.2809 39.8468 7.2809ZM32.755 5.95955C32.7909 5.69888 32.8089 5.45618 32.8269 5.18652C33.1235 5.23146 33.4291 5.25843 33.7347 5.2854L34.1032 0.961798C33.8066 1.01573 33.4471 1.0427 33.1505 1.07865C33.1864 0.853933 33.2224 0.611236 33.2314 0.377528C33.8066 0.350562 35.1009 0.170787 35.811 0.0359551L35.9279 0.0539326L35.4695 5.42922C35.7661 5.45618 36.0717 5.48315 36.3683 5.49214C36.3413 5.7618 36.3054 6.02248 36.3054 6.29214C35.1279 6.0854 33.8695 5.99551 32.755 5.95955ZM29.4652 5.5191C29.8068 5.5191 30.0225 5.2045 30.0225 4.75506C30.0225 4.10787 29.5821 3.88315 28.9798 3.63146C28.89 3.92809 28.863 4.1618 28.863 4.38652C28.863 4.93483 28.9888 5.5191 29.4652 5.5191ZM29.4203 2.41798C29.5281 2.24719 29.5281 2.08539 29.5281 1.86966C29.5281 1.40225 29.3843 0.692135 28.9888 0.692135C28.7641 0.692135 28.6203 0.898877 28.6203 1.25843C28.6113 1.79775 28.9259 2.17528 29.4203 2.41798ZM29.3214 6.31012C29.1956 6.3191 29.1147 6.32809 28.9439 6.32809C27.9012 6.32809 27.1372 5.77978 27.1372 4.97079C27.1372 4.1618 27.8923 3.67641 28.5844 3.46068C27.8473 3.1191 27.1193 2.55281 27.1193 1.74382C27.1193 0.773034 28.1619 0 29.3304 0C30.391 0 31.0202 0.647191 31.0202 1.30337C31.0202 1.97753 30.3641 2.47191 29.8607 2.63371C30.8315 3.01124 31.7483 3.31686 31.7483 4.30562C31.7483 5.39326 30.5888 6.20225 29.3214 6.31012ZM23.0835 7.55057C23.0205 7.28989 22.9397 7.03821 22.8588 6.78652C23.1464 6.71461 23.443 6.62472 23.7306 6.53483L22.4902 2.48989C22.2296 2.6427 21.9689 2.76854 21.7172 2.91236C21.6633 2.68764 21.6004 2.45393 21.5285 2.2382C22.0588 1.99551 23.1284 1.38427 23.7396 0.988765L23.8475 0.961798L25.4025 6.04045C25.6901 5.95955 26.1215 5.82472 26.2654 5.77079C26.3283 6.03146 26.3822 6.22023 26.4991 6.53483C25.3575 6.79551 24.1531 7.11911 23.0835 7.55057Z" fill="black"/>
<path d="M37.4379 57.9597C37.2941 57.9597 37.0783 57.9866 36.9435 57.9866L36.8536 57.4833C37.6895 57.3574 39.0288 56.9979 39.649 56.8091C39.667 56.89 39.7299 57.1237 39.7838 57.2585C39.5861 57.3934 39.4872 57.4923 39.2715 57.6361L41.995 61.5552L42.0309 61.5372L41.8602 57.4653L41.3928 56.881C41.2489 56.881 41.0332 56.908 40.8894 56.908C40.8714 56.7552 40.8355 56.5754 40.7995 56.4496C41.7253 56.117 42.5612 55.7574 43.4691 55.308C43.496 55.4608 43.55 55.6496 43.6039 55.7844C43.4151 55.9192 43.3073 56.0091 43.1006 56.1619L45.7521 59.8203L45.7791 59.8114L45.4465 54.9934C45.2038 54.9844 44.8982 55.0833 44.7364 55.1462C44.7095 55.0203 44.6825 54.8316 44.6466 54.6967C45.2218 54.4001 46.2645 53.735 46.3993 53.6541C46.4173 53.7619 46.4802 53.9507 46.5341 54.0945C46.3723 54.2293 46.2645 54.3282 46.1386 54.535L46.4712 60.4496C45.9319 60.7642 45.3926 61.0248 44.8263 61.2136L42.6152 58.3911L42.723 62.1754C42.2197 62.4091 41.5096 62.5799 40.9433 62.7777L37.4379 57.9597ZM35.9907 63.0743C35.3885 63.7215 34.5256 64.0001 33.6178 64.0001C31.7572 64.0001 30.5707 62.7777 30.5707 60.8451C30.5707 58.5799 32.3145 57.681 34.8222 57.681C35.1908 57.681 35.5863 57.699 35.8829 57.7619V59.5956L35.4065 59.6406C35.1998 58.6968 34.6874 58.3282 33.9863 58.3282C32.8808 58.3282 32.4943 59.2001 32.4943 60.4136C32.4943 61.7619 32.9527 63.299 33.9773 63.281C34.5885 63.272 34.8762 62.7417 34.8762 61.69C34.8762 61.5462 34.8672 61.3934 34.8582 61.2226C34.6065 61.1866 34.256 61.1507 34.0942 61.1237C34.1122 60.9529 34.1212 60.7372 34.1212 60.5664L36.4851 60.3687L36.7547 63.6675C36.593 63.6586 36.4491 63.6765 36.2963 63.7125L35.9907 63.0743ZM26.3642 63.4338C24.6024 63.4338 23.1463 62.3282 23.1463 60.3866C23.1463 58.6967 24.2519 57.2046 26.2383 57.2046C27.1641 57.2046 28.5124 57.5462 29.2674 57.9057L28.7371 59.6765L28.2787 59.5776C28.3596 58.6518 27.8293 57.8698 26.9214 57.8698C25.6811 57.8698 25.0429 59.4608 25.0429 61.1327C25.0429 62.0945 25.4114 62.7057 26.0676 62.7057C26.6967 62.7057 27.0563 62.1484 27.3079 60.9529C27.0743 60.8451 26.7417 60.7102 26.5979 60.6473C26.6608 60.4855 26.7327 60.2878 26.7866 60.117L29.1056 60.5754L28.4585 63.8203C28.3147 63.7664 28.1529 63.7395 28.0001 63.7305L27.8922 63.0473C27.4068 63.326 26.9125 63.4338 26.3642 63.4338ZM19.7038 61.1956C18.5533 61.1956 16.7646 60.4855 16.2343 59.5237C16.5399 59.0024 16.8185 58.472 17.0702 57.9237C17.232 58.0046 17.3938 58.0765 17.5555 58.1484C17.4567 58.4361 17.4117 58.6878 17.4117 58.8945C17.4117 59.6945 18.0859 60.4046 18.76 60.4046C19.1914 60.4046 19.3712 60.126 19.3712 59.7664C19.3712 58.8586 18.0679 57.5102 18.0679 56.4765C18.0679 55.6406 18.751 55.0383 19.7397 55.0383C20.7464 55.0383 22.3194 55.6855 22.8317 56.6833C22.5441 57.0608 22.2655 57.4473 22.0138 57.8428C21.879 57.7619 21.7351 57.699 21.5823 57.6451C21.6632 57.3934 21.7082 57.1776 21.7082 56.9979C21.7082 56.3597 21.1419 55.8563 20.5936 55.8563C20.1802 55.8563 19.9914 56.1439 19.9914 56.4675C19.9914 57.2585 21.4206 58.8586 21.4206 59.9012C21.4206 60.7102 20.6565 61.1956 19.7038 61.1956Z" fill="black"/>
</svg>
