<svg width="1830" height="1412" viewBox="0 0 1830 1412" fill="none"
    xmlns="http://www.w3.org/2000/svg">
    <path d="M1830 1361.94L482.443 15.1084L447.47 50.0626L1795.03 1396.89L1830 1361.94Z"
        fill="#DAFF00" />
    <path d="M1746.55 1361.94L398.996 15.1084L364.023 50.0626L1711.58 1396.89L1746.55 1361.94Z"
        fill="#DAFF00" />
    <path d="M1663.11 1361.94L315.548 15.1084L280.575 50.0626L1628.13 1396.89L1663.11 1361.94Z"
        fill="#DAFF00" />
    <path d="M1579.66 1346.83L232.101 0L166.895 65.171L1514.45 1412L1579.66 1346.83Z" fill="#DAFF00" />
    <path d="M1465.98 1361.94L118.42 15.1084L83.4474 50.0626L1431 1396.89L1465.98 1361.94Z"
        fill="#DAFF00" />
    <path d="M1382.53 1361.94L34.9731 15.1084L0 50.0626L1347.56 1396.89L1382.53 1361.94Z"
        fill="#DAFF00" />
</svg>